<svg width="100" height="100" viewBox="0 0 100 100" fill="none" xmlns="http://www.w3.org/2000/svg">
<g id="logos:css-3" clip-path="url(#clip0_6_78)">
<path id="Vector" d="M49.9391 99.7474L9.24297 91.7357L0.173828 19.6028H99.8262L90.7477 91.7247L49.9391 99.7474Z" fill="#264DE4"/>
<path id="Vector_2" d="M82.9754 87.1321L90.7332 25.5005H50V93.6149L82.9754 87.1321Z" fill="#2965F1"/>
<path id="Vector_3" d="M20.9645 52.2537L22.0824 61.1006H50V52.2537H20.9645ZM18.7176 34.3477L19.8516 43.1945H50V34.3477H18.7176ZM50 75.2299L49.9453 75.2402L36.0516 72.5798L35.1633 65.5241H22.6399L24.3875 79.415L49.9426 84.4454L50 84.4344V75.2299Z" fill="#EBEBEB"/>
<path id="Vector_4" d="M23.6266 0H38.7359V4.48089H29.9453V8.96177H38.7367V13.4424H23.6266V0ZM41.7582 0H56.868V3.8964H48.0769V4.67562H56.868V13.6374H41.7586V9.54571H50.5496V8.76648H41.7578L41.7582 0ZM59.8902 0H75V3.8964H66.209V4.67562H75V13.6374H59.8902V9.54571H68.6812V8.76648H59.8906V0H59.8902Z" fill="black"/>
<path id="Vector_5" d="M78.9559 52.2537L81.2078 34.3477H49.957V43.1945H67.5359L66.4008 52.2537H49.957V61.1006H65.3191L63.8707 72.5743L49.9566 75.2374V84.4413L75.532 79.415L75.7195 77.9202L78.6516 54.6294L78.9559 52.2537Z" fill="white"/>
</g>
<defs>
<clipPath id="clip0_6_78">
<rect width="100" height="100" fill="white"/>
</clipPath>
</defs>
</svg>
