<svg width="37" height="37" viewBox="0 0 37 37" fill="none" xmlns="http://www.w3.org/2000/svg">
<g id="mdi:github">
<path id="Vector" d="M18.4615 3.07692C16.4412 3.07692 14.4407 3.47485 12.5741 4.248C10.7076 5.02115 9.01158 6.15438 7.58298 7.58297C4.69781 10.4681 3.07693 14.3813 3.07693 18.4615C3.07693 25.2615 7.49232 31.0308 13.6 33.0769C14.3692 33.2 14.6154 32.7231 14.6154 32.3077V29.7077C10.3539 30.6308 9.44617 27.6462 9.44617 27.6462C8.73847 25.8615 7.73847 25.3846 7.73847 25.3846C6.33847 24.4308 7.84617 24.4615 7.84617 24.4615C9.38463 24.5692 10.2 26.0462 10.2 26.0462C11.5385 28.3846 13.8 27.6923 14.6769 27.3231C14.8154 26.3231 15.2154 25.6462 15.6462 25.2615C12.2308 24.8769 8.64616 23.5538 8.64616 17.6923C8.64616 15.9846 9.23078 14.6154 10.2308 13.5231C10.0769 13.1385 9.53847 11.5385 10.3846 9.46153C10.3846 9.46153 11.6769 9.04615 14.6154 11.0308C15.8308 10.6923 17.1539 10.5231 18.4615 10.5231C19.7692 10.5231 21.0923 10.6923 22.3077 11.0308C25.2462 9.04615 26.5385 9.46153 26.5385 9.46153C27.3846 11.5385 26.8462 13.1385 26.6923 13.5231C27.6923 14.6154 28.2769 15.9846 28.2769 17.6923C28.2769 23.5692 24.6769 24.8615 21.2462 25.2462C21.8 25.7231 22.3077 26.6615 22.3077 28.0923V32.3077C22.3077 32.7231 22.5539 33.2154 23.3385 33.0769C29.4462 31.0154 33.8462 25.2615 33.8462 18.4615C33.8462 16.4412 33.4482 14.4406 32.6751 12.5741C31.9019 10.7075 30.7687 9.01156 29.3401 7.58297C27.9115 6.15438 26.2155 5.02115 24.349 4.248C22.4824 3.47485 20.4819 3.07692 18.4615 3.07692Z" fill="black"/>
</g>
</svg>
