<svg width="37" height="37" viewBox="0 0 37 37" fill="none" xmlns="http://www.w3.org/2000/svg">
<g id="mdi:gmail">
<path id="Vector" d="M30.8461 27.7692H27.7692V14.3077L18.5385 20.0769L9.30768 14.3077V27.7692H6.23076V9.30769H8.07692L18.5385 15.8462L29 9.30769H30.8461M30.8461 6.23077H6.23076C4.52307 6.23077 3.15384 7.6 3.15384 9.30769V27.7692C3.15384 28.5853 3.47801 29.3679 4.05505 29.9449C4.63208 30.522 5.41471 30.8462 6.23076 30.8462H30.8461C31.6622 30.8462 32.4448 30.522 33.0219 29.9449C33.5989 29.3679 33.9231 28.5853 33.9231 27.7692V9.30769C33.9231 8.49164 33.5989 7.70901 33.0219 7.13198C32.4448 6.55494 31.6622 6.23077 30.8461 6.23077Z" fill="black"/>
</g>
</svg>
