<svg width="38" height="37" viewBox="0 0 38 37" fill="none" xmlns="http://www.w3.org/2000/svg">
<g id="mdi:linkedin">
<path id="Vector" d="M29.5384 4.69231C30.3545 4.69231 31.1371 5.01648 31.7142 5.59352C32.2912 6.17055 32.6154 6.95318 32.6154 7.76923V29.3077C32.6154 30.1237 32.2912 30.9064 31.7142 31.4834C31.1371 32.0604 30.3545 32.3846 29.5384 32.3846H7.99999C7.18394 32.3846 6.40131 32.0604 5.82427 31.4834C5.24724 30.9064 4.92307 30.1237 4.92307 29.3077V7.76923C4.92307 6.95318 5.24724 6.17055 5.82427 5.59352C6.40131 5.01648 7.18394 4.69231 7.99999 4.69231H29.5384ZM28.7692 28.5385V20.3846C28.7692 19.0545 28.2408 17.7788 27.3002 16.8382C26.3597 15.8976 25.084 15.3692 23.7538 15.3692C22.4461 15.3692 20.9231 16.1692 20.1846 17.3692V15.6615H15.8923V28.5385H20.1846V20.9538C20.1846 19.7692 21.1384 18.8 22.3231 18.8C22.8943 18.8 23.4421 19.0269 23.8461 19.4308C24.25 19.8348 24.4769 20.3826 24.4769 20.9538V28.5385H28.7692ZM10.8923 13.2462C11.5778 13.2462 12.2352 12.9738 12.7199 12.4891C13.2046 12.0044 13.4769 11.347 13.4769 10.6615C13.4769 9.23077 12.3231 8.06154 10.8923 8.06154C10.2027 8.06154 9.54141 8.33546 9.05382 8.82306C8.56622 9.31065 8.2923 9.97197 8.2923 10.6615C8.2923 12.0923 9.46153 13.2462 10.8923 13.2462ZM13.0308 28.5385V15.6615H8.76922V28.5385H13.0308Z" fill="black"/>
</g>
</svg>
