<svg width="38" height="37" viewBox="0 0 38 37" fill="none" xmlns="http://www.w3.org/2000/svg">
<g id="ri:twitter-line">
<path id="Vector" d="M24.3846 8.53846C23.2156 8.53826 22.0932 8.99689 21.2588 9.81571C20.4245 10.6345 19.9448 11.7481 19.9231 12.9169L19.88 15.34C19.8777 15.4702 19.8478 15.5985 19.7924 15.7164C19.737 15.8342 19.6573 15.9391 19.5585 16.0239C19.4597 16.1088 19.344 16.1718 19.2191 16.2087C19.0942 16.2457 18.9629 16.2558 18.8338 16.2385L16.4308 15.9108C13.2723 15.48 10.2446 14.0262 7.33845 11.6062C6.41999 16.6985 8.21537 20.2262 12.5431 22.9477L15.2308 24.6369C15.3582 24.7171 15.4642 24.8273 15.5393 24.9578C15.6144 25.0883 15.6565 25.2352 15.6618 25.3857C15.6671 25.5362 15.6355 25.6858 15.5698 25.8213C15.504 25.9568 15.4061 26.0741 15.2846 26.1631L12.8354 27.9538C14.2923 28.0462 15.6754 27.9815 16.8231 27.7538C24.0815 26.3046 28.9077 20.8431 28.9077 11.8338C28.9077 11.0985 27.3492 8.53846 24.3846 8.53846ZM16.8461 12.8615C16.873 11.3785 17.3367 9.93641 18.1793 8.71572C19.0219 7.49503 20.2058 6.55003 21.5829 5.99902C22.96 5.44802 24.4691 5.3155 25.9211 5.61807C27.3732 5.92064 28.7037 6.64484 29.7461 7.7C30.84 7.69231 31.7708 7.96923 33.8508 6.70615C33.3369 9.22923 33.0815 10.3262 31.9846 11.8323C31.9846 23.5877 24.7584 29.3062 17.4246 30.7692C12.3985 31.7723 5.08614 30.1246 2.99384 27.9354C4.05999 27.8538 8.39845 27.3877 10.9061 25.5508C8.78307 24.1508 0.339989 19.1815 5.88922 5.82461C8.49383 8.86615 11.1354 10.9354 13.8123 12.0354C15.5923 12.7662 16.0308 12.7508 16.8477 12.8631L16.8461 12.8615Z" fill="black"/>
</g>
</svg>
