<svg width="100" height="100" viewBox="0 0 100 100" fill="none" xmlns="http://www.w3.org/2000/svg">
<g id="skill-icons:javascript" clip-path="url(#clip0_6_84)">
<g id="Group">
<path id="Vector" d="M76.5625 0H23.4375C10.4933 0 0 10.4933 0 23.4375V76.5625C0 89.5067 10.4933 100 23.4375 100H76.5625C89.5067 100 100 89.5067 100 76.5625V23.4375C100 10.4933 89.5067 0 76.5625 0Z" fill="#F0DB4F"/>
<path id="Vector_2" d="M26.2938 83.5672L33.9461 78.936C35.4227 81.5536 36.7656 83.7684 39.9871 83.7684C43.075 83.7684 45.0219 82.5606 45.0219 77.8622V45.9098H54.4195V77.995C54.4195 87.7282 48.7141 92.1586 40.3899 92.1586C32.8723 92.1586 28.5086 88.2653 26.2934 83.5665M59.5238 82.5602L67.1754 78.1301C69.1898 81.4196 71.8078 83.836 76.4391 83.836C80.3332 83.836 82.816 81.8891 82.816 79.204C82.816 75.9821 80.2652 74.8407 75.9692 72.9618L73.6203 71.9543C66.8402 69.0684 62.3426 65.4434 62.3426 57.7911C62.3426 50.7426 67.7129 45.3723 76.1039 45.3723C82.0781 45.3723 86.3742 47.4536 89.4617 52.8907L82.1449 57.5895C80.5336 54.7032 78.7891 53.5622 76.1039 53.5622C73.3516 53.5622 71.6063 55.3075 71.6063 57.5895C71.6063 60.4086 73.3516 61.5501 77.3789 63.2958L79.7281 64.3024C87.716 67.7262 92.2137 71.2161 92.2137 79.0696C92.2137 87.5282 85.5684 92.1594 76.6406 92.1594C67.9145 92.1594 62.2758 87.9977 59.5238 82.5602Z" fill="#323330"/>
</g>
</g>
<defs>
<clipPath id="clip0_6_84">
<rect width="100" height="100" fill="white"/>
</clipPath>
</defs>
</svg>
